# xmcd
#
# Track frame offsets:
#	150
#	9461
#	38130
#	59139
#	81447
#	100726
#	125467
#	146593
#	167320
#	185923
#	200970
#	223721
#	241151
#	263712
#	289546
#	306842
#	325645
#
# Disc length: 4696 seconds
#
# Revision: 0
# Processed by: cddbd v1.5.2PL0 Copyright (c) Steve Scherf et al.
# Submitted via: EasyCDDAExtractor 11.0.2.1
#
DISCID=f9125611
DTITLE=Aketo - Cracheur 2 venin
DYEAR=2008
DGENRE=Rap
TTITLE0=Intro Venimeuz
TTITLE1=Debiel2007
TTITLE2=Cracheurs2venin feat Al.K-Pote
TTITLE3=Reveillons Nous feat Salif and S
TTITLE4=357 Anthem feat Freddy Krugz &
TTITLE5=Punchlinerz feat Farage, Seth
TTITLE6=Faut Faire Avec feat Daddy Lor
TTITLE7=Les Pieds Sur Terre feat Sidi-
TTITLE8=Massif feat L'skadrille
TTITLE9=Craches Ton Venin feat Exs, Sa
TTITLE10=Deceptions
TTITLE11=Venimeuz Muzik feat Zesau and Ri
TTITLE12=Retour Au Kif feat Haroun and Br
TTITLE13=Le Son Du Tiexon feat Furtif &
TTITLE14=A La Bellek feat N'dal and Fis.L
TTITLE15=95/92 feat Fofo44
TTITLE16=Style certifie feat Tunisiano,
EXTD=
EXTT0=
EXTT1=
EXTT2=
EXTT3=
EXTT4=
EXTT5=
EXTT6=
EXTT7=
EXTT8=
EXTT9=
EXTT10=
EXTT11=
EXTT12=
EXTT13=
EXTT14=
EXTT15=
EXTT16=
PLAYORDER=
